<svg width="503" height="200" viewBox="0 0 503 200" fill="none" xmlns="http://www.w3.org/2000/svg">
<path d="M478.92 0H208.901C195.98 0 178.333 8.02256 169.651 17.8192L54.7764 147.829H202.291L293.71 42.766H470.003L422.652 99.0182H478.92C491.841 99.0182 502.391 88.1539 502.391 74.9034V24.1148C502.391 10.8642 491.841 0 478.92 0Z" fill="#FFDE00"/>
<path d="M23.4711 200H293.491C306.411 200 324.058 191.977 332.74 182.181L447.615 52.1714H300.1L208.681 157.234H32.3885L79.7389 100.982H23.4711C10.5502 100.982 -2.07824e-05 111.846 -2.07824e-05 125.097V175.885C-2.07824e-05 189.136 10.5502 200 23.4711 200Z" fill="#004D92"/>
</svg>
