<svg xmlns="http://www.w3.org/2000/svg" viewBox="0 0 41.4 12.8"><defs><style>.cls-1{fill:#e95314;}.cls-2{fill:#29a3dd;}.cls-3{fill:#13110c;}</style></defs><g id="Layer_2" data-name="Layer 2"><g id="Calque_1" data-name="Calque 1"><g id="cih"><path class="cls-1" d="M12.74,0V3.77L17,6.44l2.53-1.86s0-.34-.62-.76Z"/><path class="cls-2" d="M12.79,12.8v-4l6.77-4.26.05,3.72s0,.14-.5.49Z"/><rect class="cls-3" x="4.72" y="4.25" width="1.31" height="5.01"/><polygon class="cls-3" points="10.2 4.25 10.2 6.25 8.32 6.25 8.32 4.25 7.02 4.25 7.02 9.26 8.32 9.26 8.32 6.99 10.2 6.99 10.2 9.26 11.51 9.26 11.51 4.25 10.2 4.25"/><path class="cls-3" d="M1.91,9.25a1.69,1.69,0,0,1-1.25-.5A3,3,0,0,1,0,6.69,2.12,2.12,0,0,1,1.92,4.28h2v.87H2c-.2,0-1.14.17-1.08,1.52v0a2.19,2.19,0,0,0,.41,1.43.82.82,0,0,0,.65.24v0H4.08v.87H1.91Z"/><path class="cls-3" d="M21.21,4.41h2.06a6.59,6.59,0,0,1,.91,0,1.45,1.45,0,0,1,.53.19,1.35,1.35,0,0,1,.4.39,1.08,1.08,0,0,1,0,1.16,1.15,1.15,0,0,1-.53.41,1.29,1.29,0,0,1,.72.42,1.07,1.07,0,0,1,.26.71,1.29,1.29,0,0,1-.17.62,1.2,1.2,0,0,1-.44.48,1.61,1.61,0,0,1-.7.22c-.17,0-.59,0-1.25,0H21.21Zm1,.78V6.28h.68c.41,0,.66,0,.75,0a.73.73,0,0,0,.42-.17.44.44,0,0,0,.16-.36.49.49,0,0,0-.14-.36.59.59,0,0,0-.39-.16c-.1,0-.39,0-.88,0Zm0,1.86V8.31h1a4.84,4.84,0,0,0,.71,0,.69.69,0,0,0,.38-.19.53.53,0,0,0,.14-.4.51.51,0,0,0-.11-.35A.63.63,0,0,0,24,7.12a4.08,4.08,0,0,0-.92-.07Z"/><path class="cls-3" d="M31,9.09H29.9L29.45,8H27.4L27,9.09h-1.1l2-4.68H29ZM29.12,7.24l-.71-1.73-.7,1.73Z"/><path class="cls-3" d="M31.59,9.09V4.41h1L34.7,7.54V4.41h1V9.09h-1L32.55,6V9.09Z"/><path class="cls-3" d="M36.77,9.09V4.41h1V6.49L39.9,4.41h1.4L39.36,6.24l2,2.85H40.06L38.65,6.9l-.84.78V9.09Z"/></g></g></g></svg>