<svg width="200" height="200" viewBox="0 0 200 200" fill="none" xmlns="http://www.w3.org/2000/svg">
<g clip-path="url(#clip0_1_29)">
<path d="M100 200C155.228 200 200 155.228 200 100C200 44.7715 155.228 0 100 0C44.7715 0 0 44.7715 0 100C0 155.228 44.7715 200 100 200Z" fill="#26A17B"/>
<path fill-rule="evenodd" clip-rule="evenodd" d="M112.013 108.644V108.631C111.325 108.681 107.781 108.894 99.875 108.894C93.5625 108.894 89.1187 108.706 87.5562 108.631V108.65C63.2562 107.581 45.1187 103.35 45.1187 98.2875C45.1187 93.2312 63.2562 89 87.5562 87.9125V104.437C89.1437 104.55 93.6937 104.819 99.9812 104.819C107.525 104.819 111.306 104.506 112.013 104.444V87.925C136.263 89.0062 154.356 93.2375 154.356 98.2875C154.356 103.35 136.263 107.569 112.013 108.644ZM112.013 86.2063V71.4187H145.85V48.8687H53.7188V71.4187H87.5562V86.2C60.0562 87.4625 39.375 92.9125 39.375 99.4375C39.375 105.962 60.0562 111.406 87.5562 112.675V160.062H112.013V112.662C139.469 111.4 160.1 105.956 160.1 99.4375C160.1 92.9187 139.469 87.475 112.013 86.2063Z" fill="white"/>
</g>
<defs>
<clipPath id="clip0_1_29">
<rect width="200" height="200" fill="white"/>
</clipPath>
</defs>
</svg>
