<svg width="200" height="200" viewBox="0 0 200 200" fill="none" xmlns="http://www.w3.org/2000/svg">
<g clip-path="url(#clip0_1_33)">
<path d="M100 200C155.228 200 200 155.228 200 100C200 44.7715 155.228 0 100 0C44.7715 0 0 44.7715 0 100C0 155.228 44.7715 200 100 200Z" fill="#F7931A"/>
<path d="M144.931 87.625C146.894 74.525 136.913 67.4813 123.275 62.7813L127.7 45.0312L116.9 42.3438L112.587 59.625C109.75 58.9125 106.837 58.25 103.931 57.5875L108.275 40.1938L97.475 37.5L93.05 55.2437C90.7 54.7062 88.3875 54.1813 86.15 53.6188L86.1625 53.5625L71.2625 49.8437L68.3875 61.3813C68.3875 61.3813 76.4062 63.2188 76.2375 63.3313C80.6125 64.425 81.4 67.3187 81.2688 69.6187L76.2312 89.8375C76.5312 89.9125 76.9187 90.025 77.3562 90.1937L76.2125 89.9125L69.15 118.237C68.6125 119.562 67.2562 121.556 64.1937 120.8C64.3062 120.956 56.3438 118.844 56.3438 118.844L50.9812 131.206L65.0437 134.713C67.6562 135.369 70.2187 136.056 72.7375 136.7L68.2688 154.65L79.0625 157.337L83.4875 139.587C86.4375 140.381 89.3 141.119 92.1 141.819L87.6875 159.494L98.4875 162.181L102.956 144.269C121.381 147.756 135.231 146.35 141.062 129.688C145.762 116.275 140.831 108.531 131.138 103.488C138.2 101.863 143.512 97.2188 144.931 87.625ZM120.244 122.238C116.913 135.656 94.3187 128.4 86.9937 126.581L92.9313 102.8C100.256 104.631 123.738 108.25 120.244 122.238ZM123.588 87.4313C120.544 99.6375 101.744 93.4313 95.65 91.9125L101.025 70.35C107.119 71.8687 126.763 74.7 123.588 87.4313Z" fill="white"/>
</g>
<defs>
<clipPath id="clip0_1_33">
<rect width="200" height="200" fill="white"/>
</clipPath>
</defs>
</svg>
