<svg width="51" height="38" viewBox="0 0 51 38" fill="none" xmlns="http://www.w3.org/2000/svg">
<path d="M43.1748 3.15221C39.8678 1.66869 36.3783 0.609876 32.7932 0.00216427C32.7607 -0.00318284 32.7273 0.00143528 32.6977 0.0153838C32.668 0.0293323 32.6435 0.0519262 32.6274 0.0800585C32.178 0.859002 31.6808 1.87786 31.3333 2.6755C27.4689 2.10222 23.538 2.10222 19.6736 2.6755C19.286 1.78694 18.8476 0.920423 18.3603 0.0800585C18.344 0.0522342 18.3194 0.0299007 18.2898 0.015997C18.2602 0.00209333 18.227 -0.00272898 18.1946 0.00216427C14.6087 0.606624 11.1184 1.66599 7.81302 3.15221C7.78473 3.16276 7.76108 3.18259 7.74608 3.20829C1.13528 12.8641 -0.678392 22.2831 0.210911 31.5836C0.214099 31.6273 0.242786 31.6709 0.277848 31.6989C4.12743 34.4863 8.43327 36.6145 13.0118 37.9928C13.0441 38.0027 13.0788 38.0024 13.1109 37.9917C13.143 37.9811 13.1708 37.9607 13.1903 37.9336C14.172 36.625 15.0454 35.2447 15.7976 33.7927C15.8133 33.7628 15.8187 33.7288 15.8129 33.6956C15.8072 33.6625 15.7906 33.6321 15.7657 33.6089C15.7493 33.5937 15.7297 33.582 15.7084 33.5746C14.3351 33.0587 13.0051 32.4389 11.7304 31.7207C11.6948 31.701 11.6683 31.6687 11.6565 31.6304C11.6446 31.5921 11.6483 31.5508 11.6667 31.5151C11.6775 31.4919 11.6939 31.4716 11.7145 31.4559C11.9822 31.2596 12.25 31.054 12.505 30.8483C12.5275 30.8306 12.5545 30.8192 12.5832 30.8154C12.6118 30.8115 12.641 30.8154 12.6675 30.8265C21.0155 34.553 30.052 34.553 38.298 30.8265C38.3255 30.8148 38.3558 30.8107 38.3855 30.8146C38.4153 30.8184 38.4434 30.8301 38.4669 30.8483C38.7219 31.054 38.9896 31.2596 39.2574 31.4559C39.2791 31.4714 39.2965 31.4919 39.3081 31.5156C39.3197 31.5393 39.3251 31.5654 39.3238 31.5917C39.3226 31.6179 39.3147 31.6434 39.3009 31.6659C39.287 31.6885 39.2677 31.7073 39.2446 31.7207C37.9729 32.4454 36.6412 33.0645 35.2635 33.5715C35.2415 33.5793 35.2216 33.5917 35.205 33.6078C35.1885 33.624 35.1758 33.6435 35.1679 33.665C35.1605 33.6858 35.1575 33.7078 35.1592 33.7298C35.1608 33.7518 35.167 33.7732 35.1774 33.7927C35.9424 35.2416 36.819 36.625 37.7816 37.9336C37.801 37.9607 37.8288 37.9811 37.8609 37.9917C37.893 38.0024 37.9278 38.0027 37.9601 37.9928C42.5462 36.6188 46.8591 34.4903 50.7131 31.6989C50.7324 31.6859 50.7485 31.6687 50.7601 31.6488C50.7717 31.6288 50.7785 31.6065 50.7801 31.5836C51.8447 20.8311 48.9983 11.49 43.2385 3.21141C43.2327 3.19774 43.224 3.1854 43.2131 3.17521C43.2021 3.16501 43.189 3.15718 43.1748 3.15221ZM17.0439 25.9192C14.529 25.9192 12.4603 23.6633 12.4603 20.8965C12.4603 18.1266 14.4908 15.8708 17.0439 15.8708C19.6162 15.8708 21.6657 18.1453 21.6275 20.8965C21.6275 23.6633 19.5971 25.9192 17.0439 25.9192ZM33.9885 25.9192C31.4768 25.9192 29.4049 23.6633 29.4049 20.8965C29.4049 18.1266 31.4353 15.8708 33.9885 15.8708C36.5608 15.8708 38.6135 18.1453 38.5721 20.8965C38.5721 23.6633 36.5608 25.9192 33.9885 25.9192Z" fill="#00B8DF"/>
</svg>
