<svg width="49" height="39" viewBox="0 0 49 39" fill="none" xmlns="http://www.w3.org/2000/svg">
<path d="M43.5833 0.666626H5.58331C2.97081 0.666626 0.857063 2.80413 0.857063 5.41663L0.833313 33.9166C0.833313 36.5291 2.97081 38.6666 5.58331 38.6666H43.5833C46.1958 38.6666 48.3333 36.5291 48.3333 33.9166V5.41663C48.3333 2.80413 46.1958 0.666626 43.5833 0.666626ZM42.6333 10.7604L25.8421 21.2579C25.0821 21.7329 24.0846 21.7329 23.3246 21.2579L6.53331 10.7604C6.29517 10.6267 6.08662 10.4461 5.9203 10.2295C5.75398 10.0128 5.63334 9.76472 5.56568 9.50013C5.49802 9.23554 5.48476 8.95997 5.52668 8.6901C5.56861 8.42024 5.66486 8.16168 5.80961 7.93009C5.95435 7.6985 6.14458 7.49868 6.36879 7.34274C6.59299 7.1868 6.84651 7.07797 7.11399 7.02284C7.38147 6.96771 7.65736 6.96742 7.92495 7.022C8.19255 7.07658 8.44629 7.18489 8.67081 7.34038L24.5833 17.2916L40.4958 7.34038C40.7203 7.18489 40.9741 7.07658 41.2417 7.022C41.5093 6.96742 41.7852 6.96771 42.0526 7.02284C42.3201 7.07797 42.5736 7.1868 42.7978 7.34274C43.022 7.49868 43.2123 7.6985 43.357 7.93009C43.5018 8.16168 43.598 8.42024 43.6399 8.6901C43.6819 8.95997 43.6686 9.23554 43.6009 9.50013C43.5333 9.76472 43.4126 10.0128 43.2463 10.2295C43.08 10.4461 42.8715 10.6267 42.6333 10.7604Z" fill="#00B8DF"/>
</svg>
