<svg width="232" height="201" viewBox="0 0 232 201" fill="none" xmlns="http://www.w3.org/2000/svg">
<path d="M9.42837 10.3409V191.549H119.508C185.984 191.549 222.164 160.609 222.164 100.724C222.164 39.2193 182.938 10.3409 119.508 10.3409H9.42837ZM119.508 0.963188C216.997 0.963188 231.548 63.4451 231.548 100.724C231.548 165.355 191.751 200.963 119.508 200.963H0V0.963188H119.508ZM24.1968 114.017H59.4284V176.766H24.1968V114.017ZM63.6975 82.4393C63.6975 85.3157 63.131 88.1638 62.0303 90.8212C60.9295 93.4786 59.3162 95.8932 57.2823 97.9271C55.2484 99.961 52.8338 101.574 50.1764 102.675C47.519 103.776 44.6709 104.342 41.7945 104.342C38.9182 104.342 36.07 103.776 33.4126 102.675C30.7552 101.574 28.3406 99.961 26.3067 97.9271C24.2728 95.8932 22.6595 93.4786 21.5587 90.8212C20.458 88.1638 19.8915 85.3157 19.8915 82.4393C19.8915 53.2353 63.6903 53.2353 63.6903 82.4393H63.6975ZM77.1418 72.2222V92.6926H83.4298C87.7714 92.6926 91.8017 91.448 91.8017 82.2801C91.8017 73.3944 87.3155 72.215 83.4298 72.215L77.1418 72.2222ZM181.845 62.092H192.012V92.6926H207.055C202.909 37.1426 159.233 25.16 119.508 25.16H77.1852V62.092H83.4371C94.8625 62.092 101.983 69.8489 101.983 82.2874C101.983 95.1745 95.0579 102.83 83.4371 102.83H77.1852V176.81H119.508C184.059 176.81 206.52 146.817 207.315 102.83H181.881V62.0558L181.845 62.092ZM153.575 84.8127H160.926L157.533 73.2859H156.932L153.575 84.8127ZM137.706 102.859L150.036 62.0848H164.472L176.751 102.859H166.208L163.864 94.9502H150.601L148.307 102.859H137.706ZM132.851 92.6926V102.823H107.75V62.092H132.062V72.2222H117.887V76.9762H131.259V87.1065H117.887V92.6926H132.851Z" fill="#FF444F"/>
</svg>
