<svg width="27" height="39" viewBox="0 0 27 39" fill="none" xmlns="http://www.w3.org/2000/svg">
<path d="M13.3833 18.8834C12.1235 18.8834 10.9154 18.3829 10.0246 17.4921C9.13376 16.6013 8.63331 15.3932 8.63331 14.1334C8.63331 12.8736 9.13376 11.6654 10.0246 10.7746C10.9154 9.88382 12.1235 9.38337 13.3833 9.38337C14.6431 9.38337 15.8513 9.88382 16.7421 10.7746C17.6329 11.6654 18.1333 12.8736 18.1333 14.1334C18.1333 14.7572 18.0105 15.3748 17.7717 15.9511C17.533 16.5274 17.1831 17.0511 16.7421 17.4921C16.301 17.9332 15.7774 18.2831 15.2011 18.5218C14.6248 18.7605 14.0071 18.8834 13.3833 18.8834ZM13.3833 0.833374C9.85593 0.833374 6.47303 2.23462 3.97879 4.72885C1.48456 7.22309 0.083313 10.606 0.083313 14.1334C0.083313 24.1084 13.3833 38.8334 13.3833 38.8334C13.3833 38.8334 26.6833 24.1084 26.6833 14.1334C26.6833 10.606 25.2821 7.22309 22.7878 4.72885C20.2936 2.23462 16.9107 0.833374 13.3833 0.833374Z" fill="#00B8DF"/>
</svg>
