<svg width="200" height="200" viewBox="0 0 200 200" fill="none" xmlns="http://www.w3.org/2000/svg">
<g clip-path="url(#clip0_3_42)">
<path d="M100 0C44.775 0 0 44.775 0 100C0 155.225 44.775 200 100 200C155.225 200 200 155.225 200 100C200 44.775 155.225 0 100 0ZM149.125 146.758C148.683 146.951 148.207 147.05 147.725 147.05H138.1C137.099 147.046 136.121 146.745 135.291 146.186C134.46 145.627 133.814 144.834 133.433 143.908L100.1 63.8L66.8417 143.858C66.4594 144.783 65.8127 145.575 64.9825 146.134C64.1524 146.692 63.1757 146.994 62.175 147H52.275C51.6916 147.001 51.1172 146.857 50.6039 146.58C50.0906 146.302 49.6548 145.901 49.336 145.413C49.0172 144.924 48.8256 144.364 48.7785 143.782C48.7315 143.201 48.8305 142.617 49.0667 142.083L90.9167 46.4583C91.4315 45.2821 92.2779 44.2814 93.3523 43.5784C94.4268 42.8755 95.6827 42.5007 96.9667 42.5H103.2C104.489 42.5032 105.749 42.8837 106.824 43.5945C107.899 44.3053 108.742 45.3154 109.25 46.5L150.942 142.183C151.302 143.031 151.314 143.988 150.973 144.844C150.633 145.701 149.969 146.389 149.125 146.758Z" fill="#2790C3"/>
</g>
<defs>
<clipPath id="clip0_3_42">
<rect width="200" height="200" fill="white"/>
</clipPath>
</defs>
</svg>
