<svg width="324" height="200" viewBox="0 0 324 200" fill="none" xmlns="http://www.w3.org/2000/svg">
<path d="M118.055 21.3884H205.555V178.61H118.055V21.3884Z" fill="#FF5F00"/>
<path d="M123.612 100C123.612 68.056 138.611 39.7221 161.666 21.3884C144.723 8.05527 123.334 0 100.001 0C44.7216 0 0 44.7216 0 100C0 155.277 44.7216 200 100 200C123.333 200 144.722 191.945 161.666 178.61C138.611 160.555 123.612 131.944 123.612 100Z" fill="#EB001B"/>
<path d="M323.61 100C323.61 155.277 278.889 200 223.61 200C200.277 200 178.889 191.945 161.944 178.61C185.278 160.278 200 131.944 200 100C200 68.056 184.999 39.7221 161.944 21.3884C178.887 8.05527 200.277 0 223.61 0C278.889 0 323.61 44.9999 323.61 100Z" fill="#F79E1B"/>
</svg>
