<svg width="30" height="39" viewBox="0 0 30 39" fill="none" xmlns="http://www.w3.org/2000/svg">
<path d="M15.1429 29.369C16.1027 29.369 17.0232 28.9877 17.7019 28.309C18.3806 27.6303 18.7619 26.7098 18.7619 25.75C18.7619 24.7901 18.3806 23.8696 17.7019 23.1909C17.0232 22.5122 16.1027 22.1309 15.1429 22.1309C14.183 22.1309 13.2625 22.5122 12.5838 23.1909C11.9051 23.8696 11.5238 24.7901 11.5238 25.75C11.5238 26.7098 11.9051 27.6303 12.5838 28.309C13.2625 28.9877 14.183 29.369 15.1429 29.369ZM26 13.0833C26.9599 13.0833 27.8804 13.4646 28.5591 14.1433C29.2378 14.822 29.6191 15.7425 29.6191 16.7023V34.7976C29.6191 35.7574 29.2378 36.6779 28.5591 37.3566C27.8804 38.0353 26.9599 38.4166 26 38.4166H4.28573C3.3259 38.4166 2.40538 38.0353 1.72668 37.3566C1.04798 36.6779 0.666687 35.7574 0.666687 34.7976V16.7023C0.666687 15.7425 1.04798 14.822 1.72668 14.1433C2.40538 13.4646 3.3259 13.0833 4.28573 13.0833H6.09526V9.46425C6.09526 7.06467 7.04849 4.76337 8.74524 3.06661C10.442 1.36985 12.7433 0.416626 15.1429 0.416626C16.331 0.416626 17.5075 0.65065 18.6053 1.10534C19.703 1.56002 20.7004 2.22646 21.5405 3.06661C22.3807 3.90676 23.0471 4.90416 23.5018 6.00187C23.9565 7.09958 24.1905 8.27609 24.1905 9.46425V13.0833H26ZM15.1429 4.03567C13.7031 4.03567 12.3224 4.60761 11.3043 5.62567C10.2862 6.64372 9.71431 8.0245 9.71431 9.46425V13.0833H20.5714V9.46425C20.5714 8.0245 19.9995 6.64372 18.9815 5.62567C17.9634 4.60761 16.5826 4.03567 15.1429 4.03567Z" fill="#00B8DF"/>
</svg>
