<svg width="170" height="200" viewBox="0 0 170 200" fill="none" xmlns="http://www.w3.org/2000/svg">
<path d="M143.82 15.5675C134.592 5.04966 117.911 0.54039 96.5715 0.54039H34.6377C32.5264 0.540468 30.4843 1.29373 28.8786 2.66474C27.273 4.03576 26.209 5.93459 25.8781 8.01986L0.0900662 171.574C-0.422517 174.799 2.07483 177.72 5.34371 177.72H43.5795L53.1821 116.812L52.8841 118.719C53.5682 114.414 57.2503 111.238 61.6106 111.238H79.7801C115.474 111.238 143.423 96.7404 151.587 54.8007C151.83 53.5603 152.04 52.353 152.221 51.1735C151.191 50.6278 151.191 50.6278 152.221 51.1735C154.652 35.6722 152.205 25.1205 143.82 15.5675Z" fill="#27346A"/>
<path d="M67.8126 45.5894C68.8579 45.0917 70.0012 44.8337 71.1589 44.8344H119.714C125.464 44.8344 130.826 45.2086 135.727 45.9973C137.098 46.216 138.463 46.477 139.818 46.7801C141.739 47.204 143.637 47.7227 145.507 48.3344C147.916 49.1391 150.16 50.0762 152.222 51.1735C154.652 35.6662 152.205 25.1205 143.82 15.5675C134.587 5.04966 117.911 0.54039 96.5715 0.54039H34.6324C30.2715 0.54039 26.5616 3.71522 25.8781 8.01986L0.090066 171.568C-0.422517 174.799 2.07483 177.715 5.33841 177.715H43.5795L63.502 51.3775C63.6979 50.1357 64.1925 48.9601 64.9434 47.9518C65.6943 46.9435 66.679 46.1328 67.8126 45.5894Z" fill="#27346A"/>
<path d="M151.587 54.8007C143.423 96.7344 115.475 111.238 79.7801 111.238H61.6053C57.245 111.238 53.5623 114.414 52.8848 118.719L40.9384 194.451C40.4921 197.274 42.6748 199.831 45.5305 199.831H77.7622C79.6086 199.831 81.3942 199.171 82.7979 197.972C84.2016 196.773 85.1313 195.112 85.4199 193.288L85.7338 191.646L91.8086 153.145L92.2 151.017C92.4885 149.194 93.4181 147.533 94.8217 146.334C96.2253 145.134 98.0107 144.475 99.8569 144.474H104.681C135.904 144.474 160.352 131.789 167.497 95.1033C170.479 79.7722 168.936 66.9722 161.047 57.9815C158.654 55.2583 155.683 53.0093 152.221 51.1735C152.034 52.3589 151.83 53.5603 151.587 54.8007Z" fill="#2790C3"/>
<path d="M143.677 47.7669C142.404 47.3952 141.119 47.0661 139.824 46.7801C138.468 46.482 137.104 46.2227 135.733 46.0026C130.827 45.2086 125.468 44.8338 119.713 44.8338H71.1642C70.0056 44.8311 68.8615 45.0913 67.8179 45.5947C66.683 46.1365 65.6972 46.9467 64.946 47.9553C64.1948 48.9638 63.7007 50.1403 63.5066 51.3828L53.1874 116.812L52.8894 118.719C53.5682 114.414 57.2503 111.238 61.6113 111.238H79.7861C115.48 111.238 143.428 96.7404 151.593 54.8007C151.836 53.5603 152.04 52.3583 152.227 51.1735C150.16 50.0821 147.922 49.1391 145.512 48.3397C144.904 48.1381 144.292 47.9472 143.677 47.7669" fill="#1F264F"/>
</svg>
