<svg width="166" height="200" viewBox="0 0 166 200" fill="none" xmlns="http://www.w3.org/2000/svg">
<path d="M161.4 167.617C165.142 175.942 161.375 186.458 153.567 190.7C149.1 193.133 143.983 195.392 138.875 196.658C130.45 198.672 121.835 199.792 113.175 200C99.325 200 85.4333 192.067 79.45 182.417C77.9083 185.75 72.325 192.442 62.5333 195.592C56.3583 197.592 48.9083 200 33.35 199.983C19.4083 199.975 11.4583 193.65 7.26667 188.35C0.566671 179.917 -0.416661 169.2 0.891673 161.983L0.958338 161.633C6.21667 135.242 13.4083 87.2584 16.725 63.2167L16.7583 62.9834C17.6583 56.3167 18.5833 49.65 19.1333 42.9334C19.4 39.55 19.5833 36.15 19.6167 32.7584C19.65 29.55 19.3583 26.3417 19.3833 23.1417C19.4167 20.1167 19.9083 17.0584 21.325 14.375C23.7156 10.0463 27.6304 6.76123 32.3083 5.15835C37.2 3.52502 42.3083 2.86669 47.4 2.27502C52.6005 1.6541 57.8126 1.13456 63.0333 0.716688C69.4004 0.247565 75.7823 0.00852037 82.1667 2.11438e-05C93.0833 -0.00831219 104.083 0.166688 114.842 2.39169C125.808 4.65002 136.892 8.97502 145.542 16.55C151.467 21.7417 156.175 28.2834 159.708 35.45C162.808 41.7667 164.067 48.4084 164.817 53.4834C166.148 62.5976 165.798 71.8787 163.783 80.8667C162.192 87.422 159.507 93.6622 155.842 99.325C151.725 105.725 146.433 111.533 139.7 117.058C143.8 128.975 154.5 152.242 161.4 167.617ZM38.7333 24.35C39 28.7667 39.0333 33.2167 38.8417 37.65C38.6373 42.1779 38.2759 46.6972 37.7583 51.2C37.2583 55.6834 36.6583 60.1584 36.05 64.625L35.85 66.0834C33.9333 80.0584 31.925 94.0167 29.8083 107.95C27.5414 122.57 25.1357 137.168 22.5917 151.742C21.4333 158.542 18.8417 167.25 22.3917 173.742C25.5583 179.533 33.675 180.242 39.3417 179.658C59.9583 177.55 63.2333 172.967 63.2333 172.967C59.125 168.408 62.7 147.642 66.8333 119.733H81.4917L96.825 166.125C96.825 166.125 101.35 180.492 113.908 179.8C130.008 178.917 141.85 175.233 143.558 173.192C138.6 170.425 124.425 134.983 116.708 108.958C120.442 106.675 124.067 104.2 127.492 101.425C132.158 97.6167 136.492 93.225 139.8 88.0667C142.215 84.3528 143.99 80.2598 145.05 75.9584C145.571 73.6486 145.919 71.3032 146.092 68.9417C146.438 64.8128 146.31 60.6579 145.708 56.5584C145.125 52.625 144.267 48.25 142.517 44.7084C139.25 38.0667 134.633 32.275 128.342 28.575C117.717 22.325 105.467 21.1417 93.5333 20.4917C80.5852 19.7708 67.5986 20.1946 54.725 21.7584C53.275 21.925 38.675 23.2167 38.7417 24.3417L38.7333 24.35ZM78.1833 42.3084C75.7167 59.6834 73.7417 74.325 70.1833 97.1167C79.7917 96.9084 101.6 100.733 106.4 69.5834C110.375 43.6667 92.6583 41.2667 78.1833 42.3084Z" fill="black"/>
</svg>
