<svg width="45" height="45" viewBox="0 0 45 45" fill="none" xmlns="http://www.w3.org/2000/svg">
<path d="M28.9527 43.3324L44.7412 3.85327C44.9052 3.44591 44.9458 2.99934 44.8579 2.56909C44.7701 2.13884 44.5577 1.7439 44.2472 1.4334C43.9367 1.12289 43.5418 0.910518 43.1115 0.822694C42.6813 0.73487 42.2347 0.775469 41.8274 0.939441L2.34818 16.7279C2.00454 16.8629 1.69988 17.0812 1.4617 17.3633C1.22353 17.6454 1.05932 17.9823 0.983897 18.3437C0.908475 18.7051 0.924212 19.0796 1.02969 19.4334C1.13516 19.7872 1.32705 20.1091 1.58806 20.3702L8.87262 27.6865C9.66442 28.4783 10.9313 28.5733 11.8181 27.8765L37.1874 8.49322L17.7883 33.8467C17.1073 34.7493 17.2024 36.0162 17.9942 36.808L25.3104 44.0926C26.4348 45.2169 28.3667 44.8369 28.9527 43.3324Z" fill="white"/>
</svg>
