<svg width="479" height="200" viewBox="0 0 479 200" fill="none" xmlns="http://www.w3.org/2000/svg">
<g clip-path="url(#clip0_1_15)">
<path d="M478.505 102.879C478.505 68.8514 462.022 42.0019 430.521 42.0019C398.886 42.0019 379.746 68.8523 379.746 102.613C379.746 142.621 402.343 162.824 434.774 162.824C450.592 162.824 462.554 159.236 471.593 154.185V127.601C462.555 132.121 452.187 134.912 439.028 134.912C426.135 134.912 414.704 130.393 413.242 114.708H478.239C478.239 112.979 478.505 106.068 478.505 102.879ZM412.843 90.2514C412.843 75.2318 422.015 68.9841 430.389 68.9841C438.496 68.9841 447.136 75.2318 447.136 90.2514H412.843ZM328.441 42.0019C315.414 42.0019 307.04 48.1159 302.389 52.3701L300.66 44.129H271.419V199.11L304.648 192.066L304.781 154.45C309.566 157.907 316.61 162.824 328.307 162.824C352.1 162.824 373.765 143.684 373.765 101.55C373.633 63.0028 351.701 42.0019 328.44 42.0019H328.441ZM320.465 133.582C312.623 133.582 307.97 130.792 304.781 127.336L304.648 78.0224C308.104 74.1682 312.889 71.5103 320.465 71.5103C332.561 71.5103 340.935 85.0673 340.935 102.479C340.935 120.291 332.693 133.582 320.465 133.582ZM225.694 34.1598L259.057 26.9822V0L225.694 7.04486V34.1598ZM225.694 44.2617H259.057V160.564H225.694V44.2617ZM189.94 54.0972L187.813 44.2617H159.103V160.564H192.333V81.7449C200.174 71.5103 213.466 73.371 217.587 74.8327V44.2617C213.334 42.6664 197.782 39.7421 189.94 54.0972ZM123.48 15.4187L91.0486 22.3299L90.9159 128.797C90.9159 148.47 105.67 162.957 125.342 162.957C136.241 162.957 144.216 160.964 148.602 158.571V131.589C144.35 133.317 123.348 139.431 123.348 119.759V72.5729H148.602V44.2617H123.348L123.48 15.4187ZM33.628 78.0224C33.628 72.8393 37.8813 70.8449 44.9271 70.8449C55.028 70.8449 67.7879 73.9028 77.8897 79.3523V48.1159C66.8579 43.7299 55.9589 42.0019 44.9271 42.0019C17.9439 42.0019 0 56.0916 0 79.6187C0 116.303 50.5084 110.455 50.5084 126.273C50.5084 132.386 45.1925 134.38 37.7486 134.38C26.7168 134.38 12.6271 129.861 1.46168 123.747V155.381C13.8234 160.698 26.3178 162.957 37.7486 162.957C65.3953 162.957 84.4028 149.267 84.4028 125.475C84.2701 85.8654 33.628 92.9094 33.628 78.0224Z" fill="#635BFF"/>
</g>
<defs>
<clipPath id="clip0_1_15">
<rect width="478.505" height="200" fill="white"/>
</clipPath>
</defs>
</svg>
