<svg width="37" height="39" viewBox="0 0 37 39" fill="none" xmlns="http://www.w3.org/2000/svg">
<path d="M18.1418 0.0625C15.8484 0.0625 13.6489 0.973546 12.0273 2.59522C10.4056 4.21689 9.49453 6.41635 9.49453 8.70974C9.49453 11.0031 10.4056 13.2026 12.0273 14.8243C13.6489 16.4459 15.8484 17.357 18.1418 17.357C20.4352 17.357 22.6346 16.4459 24.2563 14.8243C25.878 13.2026 26.789 11.0031 26.789 8.70974C26.789 6.41635 25.878 4.21689 24.2563 2.59522C22.6346 0.973546 20.4352 0.0625 18.1418 0.0625ZM8.91805 21.9688C6.62466 21.9688 4.4252 22.8799 2.80353 24.5016C1.18186 26.1232 0.270813 28.3227 0.270813 30.6161V33.3555C0.270813 35.0942 1.52985 36.5746 3.24546 36.8536C13.1102 38.4655 23.1733 38.4655 33.0381 36.8536C33.8684 36.7184 34.6235 36.2923 35.1685 35.6514C35.7135 35.0106 36.0127 34.1968 36.0127 33.3555V30.6161C36.0127 28.3227 35.1017 26.1232 33.48 24.5016C31.8583 22.8799 29.6589 21.9688 27.3655 21.9688H26.5815C26.1549 21.9688 25.7306 22.038 25.3271 22.1671L23.3301 22.8197C19.9587 23.9202 16.3248 23.9202 12.9534 22.8197L10.9565 22.1671C10.5522 22.0356 10.1296 21.9686 9.70437 21.9688H8.91805Z" fill="#00B8DF"/>
</svg>
