<svg width="381" height="124" viewBox="0 0 381 124" fill="none" xmlns="http://www.w3.org/2000/svg">
<g clip-path="url(#clip0_1_27)">
<path d="M197.044 39.4828C196.827 56.6874 212.318 66.2877 223.988 71.9962C235.977 77.8526 240.005 81.6084 239.957 86.8463C239.868 94.8615 230.393 98.3992 221.528 98.5367C206.06 98.7772 197.066 94.3446 189.917 90.9921L184.344 117.165C191.518 120.483 204.801 123.377 218.575 123.504C250.908 123.504 272.061 107.483 272.175 82.6423C272.302 51.1164 228.735 49.3714 229.033 35.2802C229.136 31.0075 233.197 26.4479 242.097 25.2885C246.503 24.7029 258.663 24.2547 272.451 30.628L277.862 5.3051C270.447 2.59503 260.918 -8.82065e-06 249.053 -8.82065e-06C218.621 -8.82065e-06 197.217 16.2395 197.044 39.4828ZM329.86 2.18119C323.956 2.18119 318.98 5.63825 316.76 10.9434L270.574 121.644H302.883L309.312 103.807H348.794L352.523 121.644H381L356.15 2.18119H329.86ZM334.38 34.4526L343.704 79.3122H318.168L334.38 34.4526ZM157.871 2.18269L132.403 121.643H163.192L188.647 2.1797H157.871M112.325 2.1797L80.2794 83.4923L67.3164 14.3556C65.7954 6.63773 59.7887 2.18119 53.1182 2.18119H0.733723L0 5.6502C10.7543 7.99276 22.9731 11.771 30.3758 15.8137C34.9061 18.2833 36.198 20.4421 37.6863 26.3104L62.2384 121.644H94.7738L144.655 2.18119L112.325 2.1797Z" fill="url(#paint0_linear_1_27)"/>
</g>
<defs>
<linearGradient id="paint0_linear_1_27" x1="17516.1" y1="371.253" x2="17875" y2="-12312.7" gradientUnits="userSpaceOnUse">
<stop stop-color="#222357"/>
<stop offset="1" stop-color="#254AA5"/>
</linearGradient>
<clipPath id="clip0_1_27">
<rect width="381" height="124" fill="white"/>
</clipPath>
</defs>
</svg>
