<svg width="418" height="95" viewBox="0 0 418 95" fill="none" xmlns="http://www.w3.org/2000/svg">
<path d="M25.6817 29.5648L0 59.5729H45.8573L51.0071 45.4179H31.3579L43.3635 31.536L43.4031 31.1719L35.5973 17.7333H70.7196L43.4942 92.6448H62.1221L95 2.35519H10.066L25.6817 29.5648Z" fill="#2790C3"/>
<path d="M235.472 2.656L194.64 92H173.52L168.016 28.384L139.344 92L118.352 92.128L110.032 2.656H129.232L132.816 72.032L163.152 2.656H183.12L187.984 71.648L216.144 2.656H235.472ZM265.093 2.656L249.349 92H231.301L247.173 2.656H265.093ZM300.846 92.896C291.886 92.896 284.505 90.8907 278.702 86.88C272.985 82.784 270.126 77.0667 270.126 69.728C270.126 68.96 270.211 67.808 270.382 66.272H288.686C288.345 69.856 289.283 72.8 291.502 75.104C293.806 77.408 297.134 78.56 301.486 78.56C305.838 78.56 309.251 77.664 311.726 75.872C314.286 73.9947 315.566 71.3493 315.566 67.936C315.566 64.7787 314.243 62.2613 311.598 60.384C309.038 58.5067 304.985 56.416 299.438 54.112C294.318 51.9787 290.137 50.016 286.894 48.224C283.737 46.432 281.006 43.9573 278.702 40.8C276.483 37.5573 275.374 33.504 275.374 28.64C275.374 23.0933 276.782 18.272 279.598 14.176C282.499 10.08 286.425 6.92266 291.374 4.70399C296.409 2.48533 302.126 1.376 308.526 1.376C314.841 1.376 320.302 2.44267 324.91 4.576C329.603 6.624 333.102 9.568 335.406 13.408C337.795 17.248 338.819 21.728 338.478 26.848H319.406L319.534 25.44C319.534 22.624 318.467 20.32 316.334 18.528C314.286 16.736 311.385 15.84 307.63 15.84C303.619 15.84 300.377 16.7787 297.902 18.656C295.427 20.5333 294.19 23.0933 294.19 26.336C294.19 28.4693 294.873 30.3467 296.238 31.968C297.689 33.504 299.438 34.8693 301.486 36.064C303.534 37.1733 306.478 38.624 310.318 40.416C315.353 42.6347 319.491 44.7253 322.734 46.688C325.977 48.6507 328.75 51.2533 331.054 54.496C333.358 57.7387 334.51 61.7067 334.51 66.4C334.51 71.52 333.102 76.0853 330.286 80.096C327.555 84.1067 323.63 87.264 318.51 89.568C313.475 91.7867 307.587 92.896 300.846 92.896ZM376.411 16.608L372.315 39.776H402.395L399.963 53.6H369.883L365.659 77.792H399.579L397.019 92H345.051L360.923 2.52799H412.763L410.331 16.608H376.411Z" fill="#2790C3"/>
</svg>
