<svg width="25" height="24" viewBox="0 0 25 24" fill="none" xmlns="http://www.w3.org/2000/svg">
<ellipse cx="12.5325" cy="11.7629" rx="8.57988" ry="8.40206" fill="#D9D9D9"/>
<path fill-rule="evenodd" clip-rule="evenodd" d="M0.520691 11.7629C0.520691 5.26624 5.89839 0 12.5325 0C19.1667 0 24.5444 5.26624 24.5444 11.7629C24.5444 18.2595 19.1667 23.5258 12.5325 23.5258C5.89839 23.5258 0.520691 18.2595 0.520691 11.7629ZM6.62991 12.9392C7.15483 15.8928 9.61725 18.2325 12.7247 18.2325C14.4448 18.2325 15.9871 17.5008 17.0958 16.3504C17.2063 16.2385 17.2929 16.1061 17.3508 15.9611C17.4087 15.8161 17.4365 15.6613 17.4328 15.5057C17.4291 15.3501 17.3939 15.1967 17.3292 15.0545C17.2646 14.9123 17.1717 14.7841 17.056 14.6773C16.9404 14.5705 16.8042 14.4872 16.6555 14.4323C16.5067 14.3774 16.3483 14.352 16.1894 14.3575C16.0306 14.363 15.8744 14.3994 15.73 14.4644C15.5855 14.5295 15.4557 14.622 15.3481 14.7365C14.6538 15.4576 13.7265 15.8799 12.7247 15.8799C11.0671 15.8799 9.5596 14.6848 9.08513 12.9392H13.7337C14.0523 12.9392 14.3578 12.8152 14.5831 12.5946C14.8083 12.3741 14.9349 12.0749 14.9349 11.7629C14.9349 11.4509 14.8083 11.1517 14.5831 10.9311C14.3578 10.7105 14.0523 10.5866 13.7337 10.5866H9.08513C9.5596 8.84099 11.0671 7.64588 12.7247 7.64588C13.7277 7.64588 14.6538 8.06934 15.3481 8.78923C15.4557 8.90378 15.5855 8.99627 15.73 9.06133C15.8744 9.12639 16.0306 9.16273 16.1894 9.16825C16.3483 9.17376 16.5067 9.14834 16.6555 9.09346C16.8042 9.03857 16.9404 8.95531 17.056 8.84851C17.1717 8.74171 17.2646 8.61349 17.3292 8.47128C17.3939 8.32907 17.4291 8.17571 17.4328 8.02007C17.4365 7.86444 17.4087 7.70963 17.3508 7.56463C17.2929 7.41963 17.2063 7.28732 17.0958 7.17536C15.9871 6.02378 14.4448 5.2933 12.7247 5.2933C9.61725 5.2933 7.15483 7.63294 6.62991 10.5866H6.52661C6.20803 10.5866 5.90251 10.7105 5.67724 10.9311C5.45198 11.1517 5.32542 11.4509 5.32542 11.7629C5.32542 12.0749 5.45198 12.3741 5.67724 12.5946C5.90251 12.8152 6.20803 12.9392 6.52661 12.9392H6.62991Z" fill="#029BBB"/>
</svg>
