<svg width="423" height="423" viewBox="0 0 423 423" fill="none" xmlns="http://www.w3.org/2000/svg">
<circle cx="211.5" cy="211.5" r="201.5" fill="white" stroke="black" stroke-width="20"/>
<path d="M79 299.75L126.955 131.914C127.611 129.623 128.995 127.609 130.898 126.175C132.8 124.741 135.118 123.965 137.5 123.965C139.882 123.965 142.2 124.741 144.102 126.175C146.005 127.609 147.389 129.623 148.045 131.914L196 299.75M342.25 124.25H283.75C272.114 124.25 260.954 128.873 252.726 137.101C244.498 145.329 239.875 156.489 239.875 168.125C239.875 179.761 244.498 190.921 252.726 199.149C260.954 207.377 272.114 212 283.75 212H298.375C310.011 212 321.171 216.623 329.399 224.851C337.627 233.079 342.25 244.239 342.25 255.875C342.25 267.511 337.627 278.671 329.399 286.899C321.171 295.127 310.011 299.75 298.375 299.75H239.875M283.75 329V299.75M298.375 124.25V95M100.938 241.25H174.062" stroke="black" stroke-width="20" stroke-linecap="round" stroke-linejoin="round"/>
</svg>
