<svg width="423" height="423" viewBox="0 0 423 423" fill="none" xmlns="http://www.w3.org/2000/svg">
<circle cx="211.5" cy="211.5" r="201.5" fill="white" stroke="black" stroke-width="20"/>
<path d="M343 124.25H284.778C273.197 124.25 262.09 128.873 253.901 137.101C245.712 145.329 241.111 156.489 241.111 168.125C241.111 179.761 245.712 190.921 253.901 199.149C262.09 207.377 273.197 212 284.778 212H299.333C310.914 212 322.021 216.623 330.21 224.851C338.399 233.079 343 244.239 343 255.875C343 267.511 338.399 278.671 330.21 286.899C322.021 295.127 310.914 299.75 299.333 299.75H241.111M182.889 299.75H168.333C145.171 299.75 122.958 290.505 106.579 274.049C90.2012 257.592 81 235.273 81 212C81 188.727 90.2012 166.408 106.579 149.951C122.958 133.495 145.171 124.25 168.333 124.25H182.889M284.778 329V299.75M299.333 124.25V95" stroke="black" stroke-width="20" stroke-linecap="round" stroke-linejoin="round"/>
</svg>
