<svg width="423" height="423" viewBox="0 0 423 423" fill="none" xmlns="http://www.w3.org/2000/svg">
<circle cx="211.5" cy="211.5" r="201.5" fill="white" stroke="black" stroke-width="20"/>
<path d="M288.31 251.345C288.294 265.25 282.763 278.581 272.931 288.414C263.098 298.246 249.767 303.777 235.862 303.793H223.759V315.897C223.759 319.107 222.483 322.185 220.214 324.455C217.944 326.725 214.865 328 211.655 328C208.445 328 205.367 326.725 203.097 324.455C200.827 322.185 199.552 319.107 199.552 315.897V303.793H187.448C173.543 303.777 160.212 298.246 150.379 288.414C140.547 278.581 135.016 265.25 135 251.345C135 248.135 136.275 245.056 138.545 242.786C140.815 240.517 143.893 239.241 147.103 239.241C150.313 239.241 153.392 240.517 155.662 242.786C157.932 245.056 159.207 248.135 159.207 251.345C159.207 258.835 162.182 266.018 167.479 271.315C172.775 276.611 179.958 279.586 187.448 279.586H235.862C243.352 279.586 250.535 276.611 255.832 271.315C261.128 266.018 264.103 258.835 264.103 251.345C264.103 243.855 261.128 236.671 255.832 231.375C250.535 226.079 243.352 223.103 235.862 223.103H195.517C181.607 223.103 168.267 217.578 158.431 207.742C148.595 197.906 143.069 184.565 143.069 170.655C143.069 156.745 148.595 143.405 158.431 133.569C168.267 123.733 181.607 118.207 195.517 118.207H199.552V106.103C199.552 102.893 200.827 99.8149 203.097 97.545C205.367 95.2752 208.445 94 211.655 94C214.865 94 217.944 95.2752 220.214 97.545C222.483 99.8149 223.759 102.893 223.759 106.103V118.207H227.793C241.698 118.223 255.029 123.754 264.862 133.586C274.694 143.419 280.225 156.75 280.241 170.655C280.241 173.865 278.966 176.944 276.696 179.214C274.427 181.483 271.348 182.759 268.138 182.759C264.928 182.759 261.849 181.483 259.58 179.214C257.31 176.944 256.034 173.865 256.034 170.655C256.034 163.165 253.059 155.982 247.763 150.686C242.466 145.389 235.283 142.414 227.793 142.414H195.517C188.027 142.414 180.844 145.389 175.548 150.686C170.251 155.982 167.276 163.165 167.276 170.655C167.276 178.145 170.251 185.329 175.548 190.625C180.844 195.921 188.027 198.897 195.517 198.897H235.862C249.767 198.913 263.098 204.444 272.931 214.276C282.763 224.108 288.294 237.44 288.31 251.345Z" fill="black"/>
</svg>
