<svg width="424" height="424" viewBox="0 0 424 424" fill="none" xmlns="http://www.w3.org/2000/svg">
<path d="M215.134 292.043C225.709 292.043 234.765 289.563 242.302 284.602C249.839 279.642 253.601 271.867 253.589 261.28C253.589 251.986 249.66 244.456 241.802 238.687C233.945 232.919 219.928 226.35 199.752 218.98C180.845 212.25 166.989 204.239 158.183 194.945C149.377 185.652 144.967 173.475 144.955 158.414C144.955 145.275 149.524 133.341 158.664 122.612C167.803 111.884 180.217 104.911 195.907 101.693V94.483C195.907 89.9966 197.592 86.0678 200.964 82.6966C204.335 79.3255 208.251 77.6463 212.711 77.6591C217.198 77.6591 221.127 79.3447 224.498 82.7159C227.869 86.087 229.548 90.0094 229.535 94.483V101.693C238.829 102.334 247.404 105.462 255.261 111.076C263.119 116.69 269.445 123.497 274.239 131.495C276.482 135.02 276.642 138.789 274.719 142.801C272.797 146.813 269.592 149.614 265.106 151.203C260.94 152.806 256.774 152.966 252.608 151.684C248.442 150.402 245.077 147.999 242.514 144.474C239.309 140.628 235.304 137.507 230.497 135.11C225.69 132.713 219.922 131.508 213.192 131.495C201.976 131.495 193.401 133.899 187.466 138.706C181.531 143.512 178.577 150.082 178.602 158.414C178.602 166.745 182.288 173.315 189.658 178.122C197.028 182.928 210.327 188.536 229.555 194.945C252.627 203.277 268.009 213.051 275.7 224.267C283.391 235.483 287.236 247.82 287.236 261.28C287.236 270.573 285.634 278.744 282.43 285.794C279.225 292.844 274.976 298.856 269.682 303.829C264.401 308.79 258.235 312.789 251.185 315.827C244.135 318.865 236.605 321.192 228.593 322.807V330.017C228.593 334.503 226.914 338.432 223.556 341.803C220.197 345.175 216.269 346.854 211.769 346.841C207.283 346.841 203.361 345.155 200.002 341.784C196.644 338.413 194.958 334.491 194.945 330.017V321.845C182.768 319.282 172.353 314.475 163.701 307.425C155.049 300.375 148.159 291.402 143.032 280.507C141.109 276.02 141.192 271.694 143.282 267.528C145.371 263.362 148.653 260.478 153.126 258.876C157.292 257.274 161.458 257.351 165.624 259.107C169.79 260.863 172.994 263.67 175.238 267.528C179.724 275.86 185.415 282.026 192.311 286.025C199.208 290.024 206.815 292.03 215.134 292.043ZM212.25 423.75C176.359 423.75 143.352 415.578 113.23 399.235C83.1068 382.892 58.4318 361.101 39.2046 333.863V366.068C39.2046 371.516 37.3587 376.086 33.6671 379.777C29.9755 383.469 25.4122 385.308 19.9773 385.295C14.5296 385.295 9.95988 383.45 6.26824 379.758C2.5766 376.066 0.737195 371.503 0.750013 366.068V289.159C0.750013 283.711 2.59583 279.142 6.28747 275.45C9.9791 271.758 14.5424 269.919 19.9773 269.932H96.8864C102.334 269.932 106.904 271.778 110.595 275.469C114.287 279.161 116.126 283.724 116.114 289.159C116.114 294.607 114.268 299.176 110.576 302.868C106.885 306.56 102.321 308.399 96.8864 308.386H68.5262C83.908 331.459 104.18 350.045 129.342 364.145C154.504 378.245 182.14 385.295 212.25 385.295C257.434 385.295 296.292 370.234 328.825 340.111C361.358 309.989 379.861 272.976 384.334 229.074C384.975 223.947 387.218 219.858 391.064 216.807C394.909 213.756 399.395 212.237 404.523 212.25C409.971 212.25 414.617 213.936 418.463 217.307C422.308 220.678 423.91 224.761 423.269 229.555C421.026 256.793 413.976 282.186 402.119 305.733C390.263 329.28 374.881 349.789 355.974 367.26C337.067 384.731 315.353 398.511 290.832 408.599C266.311 418.687 240.117 423.737 212.25 423.75ZM212.25 39.2045C167.066 39.2045 128.208 54.2659 95.6751 84.3886C63.1425 114.511 44.6395 151.524 40.1659 195.426C39.525 200.553 37.2818 204.642 33.4364 207.693C29.5909 210.744 25.1046 212.263 19.9773 212.25C14.5296 212.25 9.88297 210.564 6.03751 207.193C2.19206 203.822 0.589785 199.739 1.23069 194.945C3.47388 167.707 10.5239 142.314 22.3807 118.767C34.2375 95.22 49.6193 74.7109 68.5262 57.2397C87.433 39.7685 109.147 25.989 133.668 15.9011C158.189 5.81318 184.383 0.762818 212.25 0.75C248.141 0.75 281.148 8.92159 311.27 25.2648C341.393 41.608 366.068 63.3989 385.295 90.6375V58.4318C385.295 52.9841 387.141 48.4208 390.833 44.742C394.525 41.0632 399.088 39.2174 404.523 39.2045C409.971 39.2045 414.54 41.0504 418.232 44.742C421.923 48.4336 423.763 52.9969 423.75 58.4318V135.341C423.75 140.789 421.904 145.358 418.213 149.05C414.521 152.742 409.958 154.581 404.523 154.568H327.614C322.166 154.568 317.596 152.722 313.905 149.031C310.213 145.339 308.374 140.776 308.386 135.341C308.386 129.893 310.232 125.323 313.924 121.632C317.615 117.94 322.179 116.101 327.614 116.114H355.974C340.592 93.0409 320.32 74.4545 295.158 60.3545C269.996 46.2545 242.36 39.2045 212.25 39.2045Z" fill="#00B8DF"/>
</svg>
