<svg width="66" height="66" viewBox="0 0 66 66" fill="none" xmlns="http://www.w3.org/2000/svg">
<path d="M43.0625 37.125C44.7035 37.125 46.2773 37.7769 47.4377 38.9373C48.5981 40.0977 49.25 41.6715 49.25 43.3125V45.375C49.25 53.5054 41.5775 61.875 28.625 61.875C15.6725 61.875 8 53.5054 8 45.375V43.3125C8 41.6715 8.6519 40.0977 9.81228 38.9373C10.9727 37.7769 12.5465 37.125 14.1875 37.125H43.0625ZM57.5 28.875C58.3205 28.875 59.1074 29.2009 59.6876 29.7811C60.2678 30.3613 60.5938 31.1482 60.5938 31.9688C60.5938 32.7893 60.2678 33.5762 59.6876 34.1564C59.1074 34.7366 58.3205 35.0625 57.5 35.0625C56.6795 35.0625 55.8926 34.7366 55.3124 34.1564C54.7322 33.5762 54.4062 32.7893 54.4062 31.9688C54.4062 31.1482 54.7322 30.3613 55.3124 29.7811C55.8926 29.2009 56.6795 28.875 57.5 28.875ZM28.625 10.3125C31.6335 10.3125 34.5189 11.5076 36.6462 13.635C38.7736 15.7624 39.9688 18.6477 39.9688 21.6562C39.9688 24.6648 38.7736 27.5501 36.6462 29.6775C34.5189 31.8049 31.6335 33 28.625 33C25.6165 33 22.7311 31.8049 20.6038 29.6775C18.4764 27.5501 17.2812 24.6648 17.2812 21.6562C17.2812 18.6477 18.4764 15.7624 20.6038 13.635C22.7311 11.5076 25.6165 10.3125 28.625 10.3125ZM57.5 4.125C59.688 4.125 61.7865 4.99419 63.3336 6.54137C64.8808 8.08854 65.75 10.187 65.75 12.375C65.75 15.3863 64.8755 17.0775 62.6398 19.4205L61.5508 20.5343C59.9956 22.1554 59.5625 23.0299 59.5625 24.75C59.5625 25.297 59.3452 25.8216 58.9584 26.2084C58.5716 26.5952 58.047 26.8125 57.5 26.8125C56.953 26.8125 56.4284 26.5952 56.0416 26.2084C55.6548 25.8216 55.4375 25.297 55.4375 24.75C55.4375 21.7388 56.312 20.0475 58.5477 17.7045L59.6367 16.5907C61.1919 14.9737 61.625 14.0992 61.625 12.375C61.625 11.281 61.1904 10.2318 60.4168 9.45818C59.6432 8.6846 58.594 8.25 57.5 8.25C56.406 8.25 55.3568 8.6846 54.5832 9.45818C53.8096 10.2318 53.375 11.281 53.375 12.375C53.375 12.922 53.1577 13.4466 52.7709 13.8334C52.3841 14.2202 51.8595 14.4375 51.3125 14.4375C50.7655 14.4375 50.2409 14.2202 49.8541 13.8334C49.4673 13.4466 49.25 12.922 49.25 12.375C49.25 10.187 50.1192 8.08854 51.6664 6.54137C53.2135 4.99419 55.312 4.125 57.5 4.125Z" fill="white"/>
</svg>
