<svg width="23" height="13" viewBox="0 0 23 13" fill="none" xmlns="http://www.w3.org/2000/svg">
<path d="M16.4725 0.301342C16.38 0.208639 16.2701 0.135091 16.1491 0.0849095C16.0282 0.0347281 15.8985 0.00889786 15.7675 0.00889786C15.6365 0.00889786 15.5068 0.0347281 15.3859 0.0849095C15.2649 0.135091 15.155 0.208639 15.0625 0.301342L9.4225 5.94134L10.8325 7.35134L16.4725 1.70134C16.8525 1.32134 16.8525 0.681342 16.4725 0.301342ZM20.7125 0.291342L10.8325 10.1713L7.3525 6.70134C7.16552 6.51436 6.91193 6.40932 6.6475 6.40932C6.38307 6.40932 6.12948 6.51436 5.9425 6.70134C5.75552 6.88832 5.65048 7.14192 5.65048 7.40634C5.65048 7.67077 5.75552 7.92436 5.9425 8.11134L10.1225 12.2913C10.5125 12.6813 11.1425 12.6813 11.5325 12.2913L22.1225 1.71134C22.2152 1.61883 22.2888 1.50894 22.3389 1.38797C22.3891 1.26699 22.4149 1.13731 22.4149 1.00634C22.4149 0.875374 22.3891 0.745691 22.3389 0.624718C22.2888 0.503744 22.2152 0.393856 22.1225 0.301342H22.1125C22.0223 0.206944 21.914 0.13163 21.7941 0.0798698C21.6743 0.0281096 21.5452 0.000957558 21.4146 2.48739e-05C21.284 -0.00090781 21.1546 0.0243976 21.034 0.0744401C20.9134 0.124483 20.8041 0.198242 20.7125 0.291342ZM0.2925 8.12134L4.4725 12.3013C4.8625 12.6913 5.4925 12.6913 5.8825 12.3013L6.5825 11.6013L1.7025 6.70134C1.60999 6.60864 1.5001 6.53509 1.37912 6.48491C1.25815 6.43473 1.12847 6.4089 0.9975 6.4089C0.866532 6.4089 0.736849 6.43473 0.615876 6.48491C0.494902 6.53509 0.385014 6.60864 0.2925 6.70134C-0.0975 7.09134 -0.0975 7.73134 0.2925 8.12134Z" fill="white"/>
</svg>
