<svg width="44" height="57" viewBox="0 0 44 57" fill="none" xmlns="http://www.w3.org/2000/svg">
<path d="M5.66238 56.83C4.17398 56.83 2.90026 56.3005 1.84124 55.2415C0.780413 54.1806 0.25 52.906 0.25 51.4176V24.3557C0.25 22.8673 0.780413 21.5927 1.84124 20.5319C2.90026 19.4728 4.17398 18.9433 5.66238 18.9433H8.36857V13.531C8.36857 9.78739 9.68829 6.59589 12.3277 3.95645C14.9654 1.31882 18.156 0 21.8995 0C25.6431 0 28.8346 1.31882 31.474 3.95645C34.1117 6.59589 35.4305 9.78739 35.4305 13.531V18.9433H38.1367C39.6251 18.9433 40.8997 19.4728 41.9605 20.5319C43.0195 21.5927 43.549 22.8673 43.549 24.3557V51.4176C43.549 52.906 43.0195 54.1806 41.9605 55.2415C40.8997 56.3005 39.6251 56.83 38.1367 56.83H5.66238ZM21.8995 43.299C23.3879 43.299 24.6625 42.7695 25.7234 41.7105C26.7824 40.6497 27.3119 39.3751 27.3119 37.8867C27.3119 36.3983 26.7824 35.1236 25.7234 34.0628C24.6625 33.0038 23.3879 32.4743 21.8995 32.4743C20.4111 32.4743 19.1374 33.0038 18.0784 34.0628C17.0176 35.1236 16.4871 36.3983 16.4871 37.8867C16.4871 39.3751 17.0176 40.6497 18.0784 41.7105C19.1374 42.7695 20.4111 43.299 21.8995 43.299ZM13.781 18.9433H30.0181V13.531C30.0181 11.2758 29.2288 9.35891 27.6502 7.7803C26.0716 6.20169 24.1547 5.41238 21.8995 5.41238C19.6444 5.41238 17.7275 6.20169 16.1489 7.7803C14.5703 9.35891 13.781 11.2758 13.781 13.531V18.9433Z" fill="#1DD1A1"/>
</svg>
